<mxfile host="Electron" modified="2023-08-16T16:29:01.634Z" agent="Mozilla/5.0 (Windows NT 10.0; Win64; x64) AppleWebKit/537.36 (KHTML, like Gecko) draw.io/21.5.1 Chrome/112.0.5615.204 Electron/24.6.0 Safari/537.36" etag="6yb8gu79A-pKuME0rV4u" version="21.5.1" type="device">
  <diagram name="Page-1" id="V272qQCzO5Fd-WFIa6xn">
    <mxGraphModel dx="8136" dy="5136" grid="1" gridSize="10" guides="1" tooltips="1" connect="1" arrows="1" fold="1" page="1" pageScale="1" pageWidth="1200" pageHeight="1600" background="#1C1400" math="0" shadow="0">
      <root>
        <mxCell id="0" />
        <mxCell id="1" parent="0" />
        <mxCell id="9N84OvYGKkkfqLUCbNjr-1" value="Rol" style="html=1;overflow=block;blockSpacing=1;swimlane;childLayout=stackLayout;horizontal=1;horizontalStack=0;resizeParent=1;resizeParentMax=0;resizeLast=0;collapsible=0;fontStyle=0;marginBottom=0;swimlaneFillColor=#9e66e4;startSize=28;whiteSpace=wrap;fontSize=20.2;fontColor=#ffffff;align=left;spacing=0;strokeColor=#9e66e4;strokeOpacity=100;fillOpacity=100;rounded=1;absoluteArcSize=1;arcSize=9;fillColor=#9e66e4;strokeWidth=1.5;" parent="1" vertex="1">
          <mxGeometry x="2830" y="125.27000000000001" width="300" height="225.27273448439652" as="geometry" />
        </mxCell>
        <mxCell id="9N84OvYGKkkfqLUCbNjr-2" value="" style="part=1;html=1;resizeHeight=0;strokeColor=none;fillColor=none;align=left;verticalAlign=middle;spacingLeft=4;spacingRight=4;overflow=hidden;rotatable=0;points=[[0,0.5],[1,0.5]];portConstraint=eastwest;swimlaneFillColor=#9e66e4;strokeOpacity=100;fillOpacity=100;whiteSpace=wrap;fontSize=13;" parent="9N84OvYGKkkfqLUCbNjr-1" vertex="1">
          <mxGeometry y="28" width="300" height="197.27273448439652" as="geometry" />
        </mxCell>
        <mxCell id="L55LfkTeR0HH9LgH8xRA-2" style="edgeStyle=orthogonalEdgeStyle;rounded=0;orthogonalLoop=1;jettySize=auto;html=1;fillColor=#b0e3e6;strokeColor=#0e8088;strokeWidth=3;" parent="1" source="9N84OvYGKkkfqLUCbNjr-3" target="9N84OvYGKkkfqLUCbNjr-5" edge="1">
          <mxGeometry relative="1" as="geometry" />
        </mxCell>
        <mxCell id="9N84OvYGKkkfqLUCbNjr-3" value="ApplicationManager" style="html=1;overflow=block;blockSpacing=1;swimlane;childLayout=stackLayout;horizontal=1;horizontalStack=0;resizeParent=1;resizeParentMax=0;resizeLast=0;collapsible=0;marginBottom=0;swimlaneFillColor=#BB86FC;startSize=28;whiteSpace=wrap;fontSize=20.2;fontColor=#ffffff;fontStyle=1;align=left;spacing=0;strokeColor=#9e66e4;strokeOpacity=100;rounded=1;absoluteArcSize=1;arcSize=9;fillColor=#BB86FC;strokeWidth=1.5;" parent="1" vertex="1">
          <mxGeometry x="-290" y="-30" width="541" height="394.27273448439655" as="geometry" />
        </mxCell>
        <mxCell id="9N84OvYGKkkfqLUCbNjr-4" value="On StartUp use the App Class made by Ron to check if there is a new version or is staring for the first time. If yes write all app data to db, if not  get the app metadata from the db.&lt;br&gt;&lt;br&gt;This:&lt;br&gt;- applicationInfo: ApplicationInfo&lt;br&gt;- actionsInfo: ActionsInfo&lt;br&gt;- service: IAppManagerService" style="part=1;html=1;resizeHeight=0;strokeColor=none;fillColor=none;align=left;verticalAlign=middle;spacingLeft=4;spacingRight=4;overflow=hidden;rotatable=0;points=[[0,0.5],[1,0.5]];portConstraint=eastwest;swimlaneFillColor=#BB86FC;strokeOpacity=100;whiteSpace=wrap;fontSize=20.2;fontColor=#ffffff;fontStyle=1;" parent="9N84OvYGKkkfqLUCbNjr-3" vertex="1">
          <mxGeometry y="28" width="541" height="366.27273448439655" as="geometry" />
        </mxCell>
        <mxCell id="L55LfkTeR0HH9LgH8xRA-4" style="edgeStyle=orthogonalEdgeStyle;rounded=0;orthogonalLoop=1;jettySize=auto;html=1;fillColor=#b0e3e6;strokeColor=#0e8088;strokeWidth=3;endArrow=ERmany;endFill=0;" parent="1" source="9N84OvYGKkkfqLUCbNjr-5" target="9N84OvYGKkkfqLUCbNjr-38" edge="1">
          <mxGeometry relative="1" as="geometry" />
        </mxCell>
        <mxCell id="9N84OvYGKkkfqLUCbNjr-5" value="ActionInfo" style="html=1;overflow=block;blockSpacing=1;swimlane;childLayout=stackLayout;horizontal=1;horizontalStack=0;resizeParent=1;resizeParentMax=0;resizeLast=0;collapsible=0;marginBottom=0;swimlaneFillColor=#BB86FC;startSize=28;whiteSpace=wrap;fontSize=20.2;fontColor=#ffffff;fontStyle=1;align=left;spacing=0;strokeColor=#9e66e4;strokeOpacity=100;rounded=1;absoluteArcSize=1;arcSize=9;fillColor=#BB86FC;strokeWidth=1.5;" parent="1" vertex="1">
          <mxGeometry x="-150" y="543" width="450" height="443.27" as="geometry" />
        </mxCell>
        <mxCell id="9N84OvYGKkkfqLUCbNjr-6" value="Get controller meta data from ReflectionHelpers. From this extract all the methods that are action return types.&lt;br&gt;&lt;br&gt;This:&lt;br&gt;+ Actions: List&amp;lt;ActionsMetadata&amp;gt;&lt;br&gt;- _assembly: Assembly&lt;br&gt;&lt;br&gt;Populates:&lt;br&gt;This.Actions" style="part=1;html=1;resizeHeight=0;strokeColor=none;fillColor=none;align=left;verticalAlign=middle;spacingLeft=4;spacingRight=4;overflow=hidden;rotatable=0;points=[[0,0.5],[1,0.5]];portConstraint=eastwest;swimlaneFillColor=#BB86FC;strokeOpacity=100;whiteSpace=wrap;fontSize=20.2;fontColor=#ffffff;fontStyle=1;" parent="9N84OvYGKkkfqLUCbNjr-5" vertex="1">
          <mxGeometry y="28" width="450" height="415.27" as="geometry" />
        </mxCell>
        <mxCell id="L55LfkTeR0HH9LgH8xRA-3" style="edgeStyle=orthogonalEdgeStyle;rounded=0;orthogonalLoop=1;jettySize=auto;html=1;jumpSize=6;strokeWidth=3;fillColor=#b0e3e6;strokeColor=#0e8088;" parent="1" source="9N84OvYGKkkfqLUCbNjr-7" target="9N84OvYGKkkfqLUCbNjr-4" edge="1">
          <mxGeometry relative="1" as="geometry" />
        </mxCell>
        <mxCell id="L55LfkTeR0HH9LgH8xRA-5" style="edgeStyle=orthogonalEdgeStyle;rounded=0;orthogonalLoop=1;jettySize=auto;html=1;fillColor=#b0e3e6;strokeColor=#0e8088;strokeWidth=3;" parent="1" source="9N84OvYGKkkfqLUCbNjr-7" target="9N84OvYGKkkfqLUCbNjr-34" edge="1">
          <mxGeometry relative="1" as="geometry" />
        </mxCell>
        <mxCell id="L55LfkTeR0HH9LgH8xRA-9" style="edgeStyle=orthogonalEdgeStyle;rounded=0;orthogonalLoop=1;jettySize=auto;html=1;entryX=0.667;entryY=0.005;entryDx=0;entryDy=0;entryPerimeter=0;strokeWidth=3;fillColor=#b0e3e6;strokeColor=#0e8088;" parent="1" source="9N84OvYGKkkfqLUCbNjr-7" target="L55LfkTeR0HH9LgH8xRA-6" edge="1">
          <mxGeometry relative="1" as="geometry" />
        </mxCell>
        <mxCell id="9N84OvYGKkkfqLUCbNjr-7" value="ApplicatioInfo" style="html=1;overflow=block;blockSpacing=1;swimlane;childLayout=stackLayout;horizontal=1;horizontalStack=0;resizeParent=1;resizeParentMax=0;resizeLast=0;collapsible=0;marginBottom=0;swimlaneFillColor=#BB86FC;startSize=28;whiteSpace=wrap;fontSize=20.2;fontColor=#ffffff;fontStyle=1;align=left;spacing=0;strokeColor=#9e66e4;strokeOpacity=100;rounded=1;absoluteArcSize=1;arcSize=9;fillColor=#BB86FC;strokeWidth=1.5;" parent="1" vertex="1">
          <mxGeometry x="-1250" y="-60" width="390" height="390" as="geometry" />
        </mxCell>
        <mxCell id="9N84OvYGKkkfqLUCbNjr-8" value="&lt;font style=&quot;font-size: 18px; font-weight: normal;&quot;&gt;Get the current executing assembly&#39;s metaData as well as an enumerable of all the referenced assemblies&lt;br&gt;&lt;br&gt;This:&lt;br&gt;+ Title: string&lt;br&gt;+ Description: string&lt;br&gt;+ Version: Version&lt;br&gt;+ Product: string&lt;br&gt;- _assembly: Assembly&lt;br&gt;&lt;br&gt;Populates:&lt;br&gt;ReferencedAssemblies&lt;/font&gt;" style="part=1;html=1;resizeHeight=0;strokeColor=none;fillColor=none;align=left;verticalAlign=middle;spacingLeft=4;spacingRight=4;overflow=hidden;rotatable=0;points=[[0,0.5],[1,0.5]];portConstraint=eastwest;swimlaneFillColor=#BB86FC;strokeOpacity=100;whiteSpace=wrap;fontSize=20.2;fontColor=#ffffff;fontStyle=1;" parent="9N84OvYGKkkfqLUCbNjr-7" vertex="1">
          <mxGeometry y="28" width="390" height="362" as="geometry" />
        </mxCell>
        <mxCell id="9N84OvYGKkkfqLUCbNjr-11" value="IAbstractService" style="html=1;overflow=block;blockSpacing=1;swimlane;childLayout=stackLayout;horizontal=1;horizontalStack=0;resizeParent=1;resizeParentMax=0;resizeLast=0;collapsible=0;marginBottom=0;swimlaneFillColor=#BB86FC;startSize=28;whiteSpace=wrap;fontSize=20.2;fontColor=#ffffff;fontStyle=1;align=left;spacing=0;strokeColor=#9e66e4;strokeOpacity=100;rounded=1;absoluteArcSize=1;arcSize=9;fillColor=#BB86FC;strokeWidth=1.5;" parent="1" vertex="1">
          <mxGeometry x="-890" y="1266" width="225" height="225.27273448439652" as="geometry" />
        </mxCell>
        <mxCell id="9N84OvYGKkkfqLUCbNjr-12" value="Handles DB services" style="part=1;html=1;resizeHeight=0;strokeColor=none;fillColor=none;align=left;verticalAlign=middle;spacingLeft=4;spacingRight=4;overflow=hidden;rotatable=0;points=[[0,0.5],[1,0.5]];portConstraint=eastwest;swimlaneFillColor=#BB86FC;strokeOpacity=100;whiteSpace=wrap;fontSize=20.2;fontColor=#ffffff;fontStyle=1;" parent="9N84OvYGKkkfqLUCbNjr-11" vertex="1">
          <mxGeometry y="28" width="225" height="197.27273448439652" as="geometry" />
        </mxCell>
        <mxCell id="9N84OvYGKkkfqLUCbNjr-15" value="Functions" style="html=1;overflow=block;blockSpacing=1;swimlane;childLayout=stackLayout;horizontal=1;horizontalStack=0;resizeParent=1;resizeParentMax=0;resizeLast=0;collapsible=0;fontStyle=0;marginBottom=0;swimlaneFillColor=#9e66e4;startSize=28;whiteSpace=wrap;fontSize=20.2;fontColor=#ffffff;align=left;spacing=0;strokeColor=#9e66e4;strokeOpacity=100;fillOpacity=100;rounded=1;absoluteArcSize=1;arcSize=9;fillColor=#9e66e4;strokeWidth=1.5;" parent="1" vertex="1">
          <mxGeometry x="2990" y="-520" width="300" height="225.27273448439652" as="geometry" />
        </mxCell>
        <mxCell id="9N84OvYGKkkfqLUCbNjr-16" value="" style="part=1;html=1;resizeHeight=0;strokeColor=none;fillColor=none;align=left;verticalAlign=middle;spacingLeft=4;spacingRight=4;overflow=hidden;rotatable=0;points=[[0,0.5],[1,0.5]];portConstraint=eastwest;swimlaneFillColor=#9e66e4;strokeOpacity=100;fillOpacity=100;whiteSpace=wrap;fontSize=13;" parent="9N84OvYGKkkfqLUCbNjr-15" vertex="1">
          <mxGeometry y="28" width="300" height="197.27273448439652" as="geometry" />
        </mxCell>
        <mxCell id="9N84OvYGKkkfqLUCbNjr-17" value="User" style="html=1;overflow=block;blockSpacing=1;swimlane;childLayout=stackLayout;horizontal=1;horizontalStack=0;resizeParent=1;resizeParentMax=0;resizeLast=0;collapsible=0;fontStyle=0;marginBottom=0;swimlaneFillColor=#9e66e4;startSize=28;whiteSpace=wrap;fontSize=20.2;fontColor=#ffffff;align=left;spacing=0;strokeColor=#9e66e4;strokeOpacity=100;fillOpacity=100;rounded=1;absoluteArcSize=1;arcSize=9;fillColor=#9e66e4;dashed=1;fixDash=1;strokeWidth=1.5;" parent="1" vertex="1">
          <mxGeometry x="2400" y="-474.73" width="300" height="225.27273448439652" as="geometry" />
        </mxCell>
        <mxCell id="9N84OvYGKkkfqLUCbNjr-18" value="" style="part=1;html=1;resizeHeight=0;strokeColor=none;fillColor=none;align=left;verticalAlign=middle;spacingLeft=4;spacingRight=4;overflow=hidden;rotatable=0;points=[[0,0.5],[1,0.5]];portConstraint=eastwest;swimlaneFillColor=#9e66e4;strokeOpacity=100;fillOpacity=100;whiteSpace=wrap;fontSize=13;" parent="9N84OvYGKkkfqLUCbNjr-17" vertex="1">
          <mxGeometry y="28" width="300" height="197.27273448439652" as="geometry" />
        </mxCell>
        <mxCell id="9N84OvYGKkkfqLUCbNjr-20" value="" style="html=1;jettySize=18;whiteSpace=wrap;fontSize=13;strokeColor=#03DAC6;strokeWidth=2.3;rounded=1;arcSize=12;edgeStyle=orthogonalEdgeStyle;startArrow=none;endArrow=block;endFill=1;exitX=1.002;exitY=0.5;exitPerimeter=0;entryX=-0.002;entryY=0.5;entryPerimeter=0;lucidId=2WE6iTbZ8CQg;" parent="1" source="9N84OvYGKkkfqLUCbNjr-17" target="9N84OvYGKkkfqLUCbNjr-15" edge="1">
          <mxGeometry width="100" height="100" relative="1" as="geometry">
            <Array as="points" />
          </mxGeometry>
        </mxCell>
        <mxCell id="9N84OvYGKkkfqLUCbNjr-21" value="" style="html=1;jettySize=18;whiteSpace=wrap;fontSize=13;strokeColor=#03DAC6;strokeWidth=2.3;rounded=1;arcSize=12;edgeStyle=orthogonalEdgeStyle;startArrow=none;endArrow=block;endFill=1;exitX=0.5;exitY=1.005;exitPerimeter=0;entryX=0.5;entryY=-0.005;entryPerimeter=0;lucidId=9WE68WKlZ1fV;" parent="1" source="9N84OvYGKkkfqLUCbNjr-15" target="9N84OvYGKkkfqLUCbNjr-1" edge="1">
          <mxGeometry width="100" height="100" relative="1" as="geometry">
            <Array as="points" />
          </mxGeometry>
        </mxCell>
        <mxCell id="9N84OvYGKkkfqLUCbNjr-22" value="" style="html=1;jettySize=18;whiteSpace=wrap;fontSize=13;strokeColor=#03DAC6;dashed=1;fixDash=1;dashPattern=1 2;strokeWidth=2.3;rounded=1;arcSize=12;edgeStyle=orthogonalEdgeStyle;startArrow=none;endArrow=block;endFill=1;exitX=0.5;exitY=1.005;exitPerimeter=0;entryX=-0.002;entryY=0.5;entryPerimeter=0;lucidId=aXE6XuSWT6o4;" parent="1" source="9N84OvYGKkkfqLUCbNjr-17" target="9N84OvYGKkkfqLUCbNjr-1" edge="1">
          <mxGeometry width="100" height="100" relative="1" as="geometry">
            <Array as="points" />
          </mxGeometry>
        </mxCell>
        <mxCell id="9N84OvYGKkkfqLUCbNjr-34" value="AppMetaData" style="html=1;overflow=block;blockSpacing=1;swimlane;childLayout=stackLayout;horizontal=1;horizontalStack=0;resizeParent=1;resizeParentMax=0;resizeLast=0;collapsible=0;marginBottom=0;swimlaneFillColor=#BB86FC;startSize=28;whiteSpace=wrap;fontSize=23.5;fontColor=#ffffff;fontStyle=1;align=left;spacing=0;strokeColor=#9e66e4;strokeOpacity=100;rounded=1;absoluteArcSize=1;arcSize=9;fillColor=#BB86FC;strokeWidth=1.5;" parent="1" vertex="1">
          <mxGeometry x="-900" y="660" width="360" height="276.3408036784683" as="geometry" />
        </mxCell>
        <mxCell id="9N84OvYGKkkfqLUCbNjr-35" value="+ Id: int &lt;br&gt;+ Name: string&lt;br&gt;+ Version: string" style="part=1;html=1;resizeHeight=0;strokeColor=none;fillColor=none;align=left;verticalAlign=middle;spacingLeft=4;spacingRight=4;overflow=hidden;rotatable=0;points=[[0,0.5],[1,0.5]];portConstraint=eastwest;swimlaneFillColor=#BB86FC;strokeOpacity=100;whiteSpace=wrap;fontSize=20.7;fontColor=#ffffff;fontStyle=1;" parent="9N84OvYGKkkfqLUCbNjr-34" vertex="1">
          <mxGeometry y="28" width="360" height="248.3408036784683" as="geometry" />
        </mxCell>
        <mxCell id="9N84OvYGKkkfqLUCbNjr-38" value="ActionMetaData" style="html=1;overflow=block;blockSpacing=1;swimlane;childLayout=stackLayout;horizontal=1;horizontalStack=0;resizeParent=1;resizeParentMax=0;resizeLast=0;collapsible=0;marginBottom=0;swimlaneFillColor=#BB86FC;startSize=28;whiteSpace=wrap;fontSize=23.5;fontColor=#ffffff;fontStyle=1;align=left;spacing=0;strokeColor=#9e66e4;strokeOpacity=100;rounded=1;absoluteArcSize=1;arcSize=9;fillColor=#BB86FC;strokeWidth=1.5;" parent="1" vertex="1">
          <mxGeometry x="50" y="1190" width="280" height="301.27273448439655" as="geometry" />
        </mxCell>
        <mxCell id="9N84OvYGKkkfqLUCbNjr-39" value="    + Id: int&lt;br&gt;    + Name: string&lt;br&gt;+ Endpoint : string&lt;br&gt;+ EndpointMethod: string&lt;br&gt;+ HttpMethod: HttpMethod" style="part=1;html=1;resizeHeight=0;strokeColor=none;fillColor=none;align=left;verticalAlign=middle;spacingLeft=4;spacingRight=4;overflow=hidden;rotatable=0;points=[[0,0.5],[1,0.5]];portConstraint=eastwest;swimlaneFillColor=#BB86FC;strokeOpacity=100;whiteSpace=wrap;fontSize=20.2;fontColor=#ffffff;fontStyle=1;" parent="9N84OvYGKkkfqLUCbNjr-38" vertex="1">
          <mxGeometry y="28" width="280" height="273.27273448439655" as="geometry" />
        </mxCell>
        <mxCell id="L55LfkTeR0HH9LgH8xRA-6" value="ReferencedAssembly" style="html=1;overflow=block;blockSpacing=1;swimlane;childLayout=stackLayout;horizontal=1;horizontalStack=0;resizeParent=1;resizeParentMax=0;resizeLast=0;collapsible=0;marginBottom=0;swimlaneFillColor=#BB86FC;startSize=28;whiteSpace=wrap;fontSize=23.5;fontColor=#ffffff;fontStyle=1;align=left;spacing=0;strokeColor=#9e66e4;strokeOpacity=100;rounded=1;absoluteArcSize=1;arcSize=9;fillColor=#BB86FC;strokeWidth=1.5;" parent="1" vertex="1">
          <mxGeometry x="-1510" y="674.5" width="290" height="276.3408036784683" as="geometry" />
        </mxCell>
        <mxCell id="L55LfkTeR0HH9LgH8xRA-7" value="+ Id: int &lt;br&gt;+ Name: string&lt;br&gt;+ Version: Version" style="part=1;html=1;resizeHeight=0;strokeColor=none;fillColor=none;align=left;verticalAlign=middle;spacingLeft=4;spacingRight=4;overflow=hidden;rotatable=0;points=[[0,0.5],[1,0.5]];portConstraint=eastwest;swimlaneFillColor=#BB86FC;strokeOpacity=100;whiteSpace=wrap;fontSize=20.7;fontColor=#ffffff;fontStyle=1;" parent="L55LfkTeR0HH9LgH8xRA-6" vertex="1">
          <mxGeometry y="28" width="290" height="248.3408036784683" as="geometry" />
        </mxCell>
        <mxCell id="L55LfkTeR0HH9LgH8xRA-10" value="AppManagerService" style="html=1;overflow=block;blockSpacing=1;swimlane;childLayout=stackLayout;horizontal=1;horizontalStack=0;resizeParent=1;resizeParentMax=0;resizeLast=0;collapsible=0;marginBottom=0;swimlaneFillColor=#BB86FC;startSize=28;whiteSpace=wrap;fontSize=20.2;fontColor=#ffffff;fontStyle=1;align=left;spacing=0;strokeColor=#9e66e4;strokeOpacity=100;rounded=1;absoluteArcSize=1;arcSize=9;fillColor=#BB86FC;strokeWidth=1.5;" parent="1" vertex="1">
          <mxGeometry x="640" y="-70" width="350" height="200" as="geometry" />
        </mxCell>
        <mxCell id="L55LfkTeR0HH9LgH8xRA-11" value="Injectable service that handles all the database operations for the metadata module&lt;br&gt;&lt;br&gt;This:&lt;br&gt;- context: AppManagerContext" style="part=1;html=1;resizeHeight=0;strokeColor=none;fillColor=none;align=left;verticalAlign=middle;spacingLeft=4;spacingRight=4;overflow=hidden;rotatable=0;points=[[0,0.5],[1,0.5]];portConstraint=eastwest;swimlaneFillColor=#BB86FC;strokeOpacity=100;whiteSpace=wrap;fontSize=20.2;fontColor=#ffffff;fontStyle=1;" parent="L55LfkTeR0HH9LgH8xRA-10" vertex="1">
          <mxGeometry y="28" width="350" height="172" as="geometry" />
        </mxCell>
        <mxCell id="L55LfkTeR0HH9LgH8xRA-14" style="edgeStyle=orthogonalEdgeStyle;rounded=0;orthogonalLoop=1;jettySize=auto;html=1;exitX=1;exitY=0.5;exitDx=0;exitDy=0;fillColor=#b0e3e6;strokeColor=#0e8088;strokeWidth=3;" parent="1" source="9N84OvYGKkkfqLUCbNjr-4" target="L55LfkTeR0HH9LgH8xRA-11" edge="1">
          <mxGeometry relative="1" as="geometry" />
        </mxCell>
        <mxCell id="L55LfkTeR0HH9LgH8xRA-18" value="AuthHandler:&amp;nbsp;AuthorizationHandler&amp;lt;CustomRequireClaim&amp;gt;" style="html=1;overflow=block;blockSpacing=1;swimlane;childLayout=stackLayout;horizontal=1;horizontalStack=0;resizeParent=1;resizeParentMax=0;resizeLast=0;collapsible=0;marginBottom=0;swimlaneFillColor=#BB86FC;startSize=28;whiteSpace=wrap;fontSize=20.2;fontColor=#ffffff;fontStyle=1;align=left;spacing=0;strokeColor=#9e66e4;strokeOpacity=100;rounded=1;absoluteArcSize=1;arcSize=9;fillColor=#BB86FC;strokeWidth=1.5;" parent="1" vertex="1">
          <mxGeometry x="1200" y="125.27" width="580" height="200" as="geometry" />
        </mxCell>
        <mxCell id="L55LfkTeR0HH9LgH8xRA-19" value="Get the endpointMethod the user is trying to access and see if it exists it their list of claims" style="part=1;html=1;resizeHeight=0;strokeColor=none;fillColor=none;align=left;verticalAlign=middle;spacingLeft=4;spacingRight=4;overflow=hidden;rotatable=0;points=[[0,0.5],[1,0.5]];portConstraint=eastwest;swimlaneFillColor=#BB86FC;strokeOpacity=100;whiteSpace=wrap;fontSize=20.2;fontColor=#ffffff;fontStyle=1;" parent="L55LfkTeR0HH9LgH8xRA-18" vertex="1">
          <mxGeometry y="28" width="580" height="172" as="geometry" />
        </mxCell>
        <mxCell id="PVdafBkIemz0PUyKVJ0L-13" style="edgeStyle=orthogonalEdgeStyle;rounded=0;orthogonalLoop=1;jettySize=auto;html=1;entryX=0.5;entryY=0;entryDx=0;entryDy=0;fillColor=#b0e3e6;strokeColor=#0e8088;strokeWidth=5;dashed=1;" parent="1" source="L55LfkTeR0HH9LgH8xRA-20" target="L55LfkTeR0HH9LgH8xRA-18" edge="1">
          <mxGeometry relative="1" as="geometry" />
        </mxCell>
        <mxCell id="L55LfkTeR0HH9LgH8xRA-20" value="CustomRequireClaim: IAuthorizationRequirement" style="html=1;overflow=block;blockSpacing=1;swimlane;childLayout=stackLayout;horizontal=1;horizontalStack=0;resizeParent=1;resizeParentMax=0;resizeLast=0;collapsible=0;marginBottom=0;swimlaneFillColor=#BB86FC;startSize=28;whiteSpace=wrap;fontSize=20.2;fontColor=#ffffff;fontStyle=1;align=left;spacing=0;strokeColor=#9e66e4;strokeOpacity=100;rounded=1;absoluteArcSize=1;arcSize=9;fillColor=#BB86FC;strokeWidth=1.5;" parent="1" vertex="1">
          <mxGeometry x="1200" y="-240" width="570" height="200" as="geometry" />
        </mxCell>
        <mxCell id="L55LfkTeR0HH9LgH8xRA-21" value="Get all the endpointMethods that have been linked with a user and cache it for the session" style="part=1;html=1;resizeHeight=0;strokeColor=none;fillColor=none;align=left;verticalAlign=middle;spacingLeft=4;spacingRight=4;overflow=hidden;rotatable=0;points=[[0,0.5],[1,0.5]];portConstraint=eastwest;swimlaneFillColor=#BB86FC;strokeOpacity=100;whiteSpace=wrap;fontSize=20.2;fontColor=#ffffff;fontStyle=1;" parent="L55LfkTeR0HH9LgH8xRA-20" vertex="1">
          <mxGeometry y="28" width="570" height="172" as="geometry" />
        </mxCell>
        <mxCell id="PVdafBkIemz0PUyKVJ0L-2" value="Authorization: Policy:&amp;nbsp;" style="html=1;overflow=block;blockSpacing=1;swimlane;childLayout=stackLayout;horizontal=1;horizontalStack=0;resizeParent=1;resizeParentMax=0;resizeLast=0;collapsible=0;marginBottom=0;swimlaneFillColor=#BB86FC;startSize=28;whiteSpace=wrap;fontSize=20.2;fontColor=#ffffff;fontStyle=1;align=left;spacing=0;strokeColor=#9e66e4;strokeOpacity=100;rounded=1;absoluteArcSize=1;arcSize=9;fillColor=#BB86FC;strokeWidth=1.5;" parent="1" vertex="1">
          <mxGeometry x="1870" y="-74.72999999999999" width="450" height="200" as="geometry" />
        </mxCell>
        <mxCell id="PVdafBkIemz0PUyKVJ0L-3" value="Create a policy that encapsulates the AuthHandler and the&amp;nbsp;" style="part=1;html=1;resizeHeight=0;strokeColor=none;fillColor=none;align=left;verticalAlign=middle;spacingLeft=4;spacingRight=4;overflow=hidden;rotatable=0;points=[[0,0.5],[1,0.5]];portConstraint=eastwest;swimlaneFillColor=#BB86FC;strokeOpacity=100;whiteSpace=wrap;fontSize=20.2;fontColor=#ffffff;fontStyle=1;" parent="PVdafBkIemz0PUyKVJ0L-2" vertex="1">
          <mxGeometry y="28" width="450" height="172" as="geometry" />
        </mxCell>
        <mxCell id="PVdafBkIemz0PUyKVJ0L-5" style="edgeStyle=orthogonalEdgeStyle;rounded=0;orthogonalLoop=1;jettySize=auto;html=1;exitX=1;exitY=0.5;exitDx=0;exitDy=0;" parent="1" source="L55LfkTeR0HH9LgH8xRA-21" edge="1">
          <mxGeometry relative="1" as="geometry">
            <mxPoint x="1870" y="40" as="targetPoint" />
          </mxGeometry>
        </mxCell>
        <mxCell id="PVdafBkIemz0PUyKVJ0L-8" style="edgeStyle=orthogonalEdgeStyle;rounded=0;orthogonalLoop=1;jettySize=auto;html=1;exitX=1;exitY=0.5;exitDx=0;exitDy=0;" parent="1" source="L55LfkTeR0HH9LgH8xRA-21" edge="1">
          <mxGeometry relative="1" as="geometry">
            <mxPoint x="1870" y="40" as="targetPoint" />
          </mxGeometry>
        </mxCell>
        <mxCell id="PVdafBkIemz0PUyKVJ0L-10" style="edgeStyle=orthogonalEdgeStyle;rounded=0;orthogonalLoop=1;jettySize=auto;html=1;exitX=1;exitY=0.5;exitDx=0;exitDy=0;fillColor=#b0e3e6;strokeColor=#0e8088;strokeWidth=3;entryX=0;entryY=0.5;entryDx=0;entryDy=0;" parent="1" source="L55LfkTeR0HH9LgH8xRA-21" target="PVdafBkIemz0PUyKVJ0L-3" edge="1">
          <mxGeometry relative="1" as="geometry">
            <mxPoint x="1800" y="248.2" as="sourcePoint" />
            <mxPoint x="2189" y="111.2" as="targetPoint" />
          </mxGeometry>
        </mxCell>
        <mxCell id="PVdafBkIemz0PUyKVJ0L-11" style="edgeStyle=orthogonalEdgeStyle;rounded=0;orthogonalLoop=1;jettySize=auto;html=1;exitX=1;exitY=0.5;exitDx=0;exitDy=0;fillColor=#b0e3e6;strokeColor=#0e8088;strokeWidth=3;entryX=0;entryY=0.5;entryDx=0;entryDy=0;" parent="1" source="L55LfkTeR0HH9LgH8xRA-19" target="PVdafBkIemz0PUyKVJ0L-3" edge="1">
          <mxGeometry relative="1" as="geometry">
            <mxPoint x="1780" y="-139.73000000000002" as="sourcePoint" />
            <mxPoint x="1890" y="-294.73" as="targetPoint" />
          </mxGeometry>
        </mxCell>
        <mxCell id="PVdafBkIemz0PUyKVJ0L-12" style="edgeStyle=orthogonalEdgeStyle;rounded=0;orthogonalLoop=1;jettySize=auto;html=1;" parent="1" source="L55LfkTeR0HH9LgH8xRA-21" edge="1">
          <mxGeometry relative="1" as="geometry">
            <mxPoint x="1200" y="-126" as="targetPoint" />
          </mxGeometry>
        </mxCell>
        <mxCell id="2nWc24bB83PA8nXsG81y-3" value="&lt;font style=&quot;font-size: 20px;&quot;&gt;&lt;b&gt;HIsarna.Standard.Domain&lt;br&gt;(Abstract Implimentation)&lt;br&gt;&lt;/b&gt;&lt;/font&gt;" style="ellipse;whiteSpace=wrap;html=1;fillColor=#fad7ac;strokeColor=#b46504;" vertex="1" parent="1">
          <mxGeometry x="10" y="-1360" width="260" height="180" as="geometry" />
        </mxCell>
        <mxCell id="2nWc24bB83PA8nXsG81y-4" value="&lt;font style=&quot;font-size: 20px;&quot;&gt;&lt;b&gt;HIsarna.Standard.BLL&lt;br&gt;&lt;/b&gt;&lt;b style=&quot;border-color: var(--border-color);&quot;&gt;(Concrete Implimentation)&lt;/b&gt;&lt;b&gt;&lt;br&gt;&lt;/b&gt;&lt;/font&gt;" style="ellipse;whiteSpace=wrap;html=1;fillColor=#fad7ac;strokeColor=#b46504;" vertex="1" parent="1">
          <mxGeometry x="10" y="-1100" width="260" height="180" as="geometry" />
        </mxCell>
        <mxCell id="2nWc24bB83PA8nXsG81y-5" value="&lt;font style=&quot;font-size: 20px;&quot;&gt;&lt;b&gt;HIsarna.Standard.Services&lt;br&gt;(Interface definition only)&lt;br&gt;&lt;/b&gt;&lt;/font&gt;" style="ellipse;whiteSpace=wrap;html=1;fillColor=#fad7ac;strokeColor=#b46504;" vertex="1" parent="1">
          <mxGeometry x="10" y="-709.46" width="260" height="180" as="geometry" />
        </mxCell>
        <mxCell id="2nWc24bB83PA8nXsG81y-21" style="edgeStyle=orthogonalEdgeStyle;rounded=0;orthogonalLoop=1;jettySize=auto;html=1;exitX=0.25;exitY=1;exitDx=0;exitDy=0;entryX=0.5;entryY=0;entryDx=0;entryDy=0;strokeWidth=4;strokeColor=#F2F2F2;curved=1;" edge="1" parent="1" source="2nWc24bB83PA8nXsG81y-11" target="2nWc24bB83PA8nXsG81y-17">
          <mxGeometry relative="1" as="geometry" />
        </mxCell>
        <mxCell id="2nWc24bB83PA8nXsG81y-22" style="edgeStyle=orthogonalEdgeStyle;rounded=0;orthogonalLoop=1;jettySize=auto;html=1;exitX=0.5;exitY=1;exitDx=0;exitDy=0;curved=1;strokeWidth=4;strokeColor=#F7F7F7;entryX=0.5;entryY=0;entryDx=0;entryDy=0;" edge="1" parent="1" source="2nWc24bB83PA8nXsG81y-11" target="2nWc24bB83PA8nXsG81y-3">
          <mxGeometry relative="1" as="geometry">
            <mxPoint x="150" y="-1380" as="targetPoint" />
          </mxGeometry>
        </mxCell>
        <mxCell id="2nWc24bB83PA8nXsG81y-23" style="edgeStyle=orthogonalEdgeStyle;rounded=0;orthogonalLoop=1;jettySize=auto;html=1;exitX=0.75;exitY=1;exitDx=0;exitDy=0;entryX=0.5;entryY=0;entryDx=0;entryDy=0;strokeWidth=4;strokeColor=#EDEDED;curved=1;" edge="1" parent="1" source="2nWc24bB83PA8nXsG81y-11" target="2nWc24bB83PA8nXsG81y-18">
          <mxGeometry relative="1" as="geometry" />
        </mxCell>
        <mxCell id="2nWc24bB83PA8nXsG81y-11" value="&lt;h1&gt;&lt;font style=&quot;font-size: 20px;&quot;&gt;&lt;b&gt;HIsarna Authorization&lt;/b&gt;&lt;/font&gt;&lt;/h1&gt;" style="whiteSpace=wrap;html=1;fillColor=#d5e8d4;strokeColor=#82b366;" vertex="1" parent="1">
          <mxGeometry x="10" y="-1550" width="260" height="80" as="geometry" />
        </mxCell>
        <mxCell id="2nWc24bB83PA8nXsG81y-12" value="&lt;font color=&quot;#f7f7f7&quot; style=&quot;font-size: 20px;&quot;&gt;&lt;b&gt;HIsarna.Framework.Services&lt;/b&gt;&lt;/font&gt;" style="ellipse;whiteSpace=wrap;html=1;fillColor=#fad7ac;strokeColor=#b46504;opacity=30;" vertex="1" parent="1">
          <mxGeometry x="-455" y="-704.46" width="280" height="170" as="geometry" />
        </mxCell>
        <mxCell id="2nWc24bB83PA8nXsG81y-14" value="&lt;font color=&quot;#f7f7f7&quot; style=&quot;font-size: 20px;&quot;&gt;&lt;b&gt;HIsarna.Framework.Security&lt;/b&gt;&lt;/font&gt;" style="ellipse;whiteSpace=wrap;html=1;fillColor=#fad7ac;strokeColor=#b46504;opacity=30;" vertex="1" parent="1">
          <mxGeometry x="-455" y="-419.46" width="280" height="170" as="geometry" />
        </mxCell>
        <mxCell id="2nWc24bB83PA8nXsG81y-15" value="&lt;font style=&quot;font-size: 20px;&quot;&gt;&lt;b&gt;HIsarna.Framework.Security&lt;/b&gt;&lt;/font&gt;" style="ellipse;whiteSpace=wrap;html=1;fillColor=#b1ddf0;strokeColor=#10739e;" vertex="1" parent="1">
          <mxGeometry x="-455" y="-419.46" width="280" height="170" as="geometry" />
        </mxCell>
        <mxCell id="2nWc24bB83PA8nXsG81y-16" value="&lt;font style=&quot;font-size: 20px;&quot;&gt;&lt;b&gt;HIsarna.Framework.Services&lt;/b&gt;&lt;/font&gt;" style="ellipse;whiteSpace=wrap;html=1;fillColor=#b1ddf0;strokeColor=#10739e;" vertex="1" parent="1">
          <mxGeometry x="-455" y="-704.46" width="280" height="170" as="geometry" />
        </mxCell>
        <mxCell id="2nWc24bB83PA8nXsG81y-17" value="&lt;font style=&quot;font-size: 20px;&quot;&gt;&lt;b&gt;HIsarna.Framework.Domain&lt;br&gt;&lt;/b&gt;&lt;b style=&quot;border-color: var(--border-color);&quot;&gt;(Overrides Helpers)&lt;/b&gt;&lt;b&gt;&lt;br&gt;&lt;/b&gt;&lt;/font&gt;" style="ellipse;whiteSpace=wrap;html=1;fillColor=#b1ddf0;strokeColor=#10739e;" vertex="1" parent="1">
          <mxGeometry x="-445" y="-1250" width="270" height="170" as="geometry" />
        </mxCell>
        <mxCell id="2nWc24bB83PA8nXsG81y-18" value="&lt;font style=&quot;font-size: 20px;&quot;&gt;&lt;b&gt;HIsarna.Core.Domain&lt;br&gt;(Overrides Helpers)&lt;br&gt;&lt;/b&gt;&lt;/font&gt;" style="ellipse;whiteSpace=wrap;html=1;fillColor=#d0cee2;strokeColor=#56517e;" vertex="1" parent="1">
          <mxGeometry x="440" y="-1240" width="270" height="170" as="geometry" />
        </mxCell>
        <mxCell id="2nWc24bB83PA8nXsG81y-19" value="&lt;font style=&quot;font-size: 20px;&quot;&gt;&lt;b&gt;HIsarna.Core.Services&lt;/b&gt;&lt;/font&gt;" style="ellipse;whiteSpace=wrap;html=1;fillColor=#d0cee2;strokeColor=#56517e;" vertex="1" parent="1">
          <mxGeometry x="440" y="-704.46" width="270" height="170" as="geometry" />
        </mxCell>
        <mxCell id="2nWc24bB83PA8nXsG81y-20" value="&lt;font style=&quot;font-size: 20px;&quot;&gt;&lt;b&gt;HIsarna.Core.Security&lt;/b&gt;&lt;/font&gt;" style="ellipse;whiteSpace=wrap;html=1;fillColor=#d0cee2;strokeColor=#56517e;" vertex="1" parent="1">
          <mxGeometry x="440" y="-419.46" width="270" height="170" as="geometry" />
        </mxCell>
        <mxCell id="2nWc24bB83PA8nXsG81y-25" style="edgeStyle=orthogonalEdgeStyle;rounded=0;orthogonalLoop=1;jettySize=auto;html=1;exitX=0.5;exitY=1;exitDx=0;exitDy=0;strokeWidth=4;strokeColor=#FFFFFF;curved=1;" edge="1" parent="1" source="2nWc24bB83PA8nXsG81y-16" target="2nWc24bB83PA8nXsG81y-15">
          <mxGeometry relative="1" as="geometry">
            <mxPoint x="-325" y="-511.82" as="sourcePoint" />
            <mxPoint x="-330" y="-121.82000000000001" as="targetPoint" />
          </mxGeometry>
        </mxCell>
        <mxCell id="2nWc24bB83PA8nXsG81y-27" style="edgeStyle=orthogonalEdgeStyle;rounded=0;orthogonalLoop=1;jettySize=auto;html=1;exitX=0.5;exitY=1;exitDx=0;exitDy=0;strokeWidth=4;strokeColor=#FFFFFF;curved=1;" edge="1" parent="1">
          <mxGeometry relative="1" as="geometry">
            <mxPoint x="574.29" y="-534.46" as="sourcePoint" />
            <mxPoint x="574.29" y="-419.46" as="targetPoint" />
          </mxGeometry>
        </mxCell>
        <mxCell id="2nWc24bB83PA8nXsG81y-28" value="&lt;font style=&quot;font-size: 20px;&quot;&gt;&lt;b&gt;HIsarna.Core.Data&lt;/b&gt;&lt;/font&gt;" style="ellipse;whiteSpace=wrap;html=1;fillColor=#d0cee2;strokeColor=#56517e;" vertex="1" parent="1">
          <mxGeometry x="440" y="-960" width="270" height="170" as="geometry" />
        </mxCell>
        <mxCell id="2nWc24bB83PA8nXsG81y-29" value="&lt;font style=&quot;font-size: 20px;&quot;&gt;&lt;b&gt;HIsarna.Framework.Data&lt;/b&gt;&lt;/font&gt;" style="ellipse;whiteSpace=wrap;html=1;fillColor=#B1DDF0;strokeColor=#10739e;" vertex="1" parent="1">
          <mxGeometry x="-452.5" y="-970" width="275" height="170" as="geometry" />
        </mxCell>
        <mxCell id="2nWc24bB83PA8nXsG81y-30" value="&lt;font color=&quot;#ffffff&quot; style=&quot;font-size: 16px; background-color: rgb(10, 10, 10);&quot;&gt;Impliments&lt;/font&gt;" style="endArrow=open;endSize=12;dashed=1;html=1;rounded=0;strokeWidth=4;strokeColor=#FFFFFF;entryX=0;entryY=0.5;entryDx=0;entryDy=0;" edge="1" parent="1" target="2nWc24bB83PA8nXsG81y-5">
          <mxGeometry width="160" relative="1" as="geometry">
            <mxPoint x="-180" y="-620.17" as="sourcePoint" />
            <mxPoint x="-20" y="-620.17" as="targetPoint" />
          </mxGeometry>
        </mxCell>
        <mxCell id="2nWc24bB83PA8nXsG81y-31" value="&lt;font color=&quot;#ffffff&quot; style=&quot;font-size: 16px; background-color: rgb(10, 10, 10);&quot;&gt;Impliments&lt;/font&gt;" style="endArrow=none;endSize=12;dashed=1;html=1;rounded=0;strokeWidth=4;strokeColor=#FFFFFF;entryX=0;entryY=0.5;entryDx=0;entryDy=0;exitX=1;exitY=0.5;exitDx=0;exitDy=0;startArrow=open;startFill=0;endFill=0;" edge="1" parent="1" source="2nWc24bB83PA8nXsG81y-5" target="2nWc24bB83PA8nXsG81y-19">
          <mxGeometry width="160" relative="1" as="geometry">
            <mxPoint x="310" y="-550" as="sourcePoint" />
            <mxPoint x="380" y="-560" as="targetPoint" />
          </mxGeometry>
        </mxCell>
        <mxCell id="2nWc24bB83PA8nXsG81y-36" style="edgeStyle=orthogonalEdgeStyle;rounded=0;orthogonalLoop=1;jettySize=auto;html=1;strokeWidth=4;strokeColor=#FFFFFF;curved=1;exitX=0.5;exitY=1;exitDx=0;exitDy=0;entryX=0.5;entryY=0;entryDx=0;entryDy=0;" edge="1" parent="1" source="2nWc24bB83PA8nXsG81y-28" target="2nWc24bB83PA8nXsG81y-19">
          <mxGeometry relative="1" as="geometry">
            <mxPoint x="690" y="-760" as="sourcePoint" />
            <mxPoint x="650" y="-750" as="targetPoint" />
          </mxGeometry>
        </mxCell>
        <mxCell id="2nWc24bB83PA8nXsG81y-38" style="edgeStyle=orthogonalEdgeStyle;rounded=0;orthogonalLoop=1;jettySize=auto;html=1;strokeWidth=4;strokeColor=#FFFFFF;curved=1;exitX=0.5;exitY=1;exitDx=0;exitDy=0;entryX=0.5;entryY=0;entryDx=0;entryDy=0;" edge="1" parent="1" source="2nWc24bB83PA8nXsG81y-29" target="2nWc24bB83PA8nXsG81y-16">
          <mxGeometry relative="1" as="geometry">
            <mxPoint x="-360" y="-780" as="sourcePoint" />
            <mxPoint x="-155" y="-730" as="targetPoint" />
          </mxGeometry>
        </mxCell>
        <mxCell id="2nWc24bB83PA8nXsG81y-39" value="&lt;font color=&quot;#ffffff&quot; style=&quot;font-size: 16px; background-color: rgb(10, 10, 10);&quot;&gt;Impliments&lt;/font&gt;" style="endArrow=none;endSize=12;dashed=1;html=1;rounded=0;strokeWidth=4;strokeColor=#FFFFFF;startArrow=open;startFill=0;endFill=0;entryX=0;entryY=0.5;entryDx=0;entryDy=0;exitX=1;exitY=0.5;exitDx=0;exitDy=0;" edge="1" parent="1" source="2nWc24bB83PA8nXsG81y-3" target="2nWc24bB83PA8nXsG81y-18">
          <mxGeometry width="160" relative="1" as="geometry">
            <mxPoint x="320" y="-1210" as="sourcePoint" />
            <mxPoint x="410" y="-1180" as="targetPoint" />
          </mxGeometry>
        </mxCell>
        <mxCell id="2nWc24bB83PA8nXsG81y-40" value="&lt;font color=&quot;#ffffff&quot; style=&quot;font-size: 16px; background-color: rgb(10, 10, 10);&quot;&gt;Impliments&lt;/font&gt;" style="endArrow=open;endSize=12;dashed=1;html=1;rounded=0;strokeWidth=4;strokeColor=#FFFFFF;entryX=0;entryY=0.5;entryDx=0;entryDy=0;exitX=1;exitY=0.5;exitDx=0;exitDy=0;" edge="1" parent="1" source="2nWc24bB83PA8nXsG81y-17" target="2nWc24bB83PA8nXsG81y-3">
          <mxGeometry width="160" relative="1" as="geometry">
            <mxPoint x="-150" y="-1170" as="sourcePoint" />
            <mxPoint x="40" y="-1168.83" as="targetPoint" />
          </mxGeometry>
        </mxCell>
        <mxCell id="2nWc24bB83PA8nXsG81y-41" value="&lt;span style=&quot;background-color: rgb(5, 5, 5); font-size: 15px;&quot;&gt;&lt;font style=&quot;font-size: 15px;&quot; color=&quot;#ffffff&quot;&gt;Uses&lt;/font&gt;&lt;/span&gt;" style="endArrow=open;endSize=12;dashed=1;html=1;rounded=0;strokeColor=#FFFFFF;strokeWidth=3;exitX=0;exitY=0;exitDx=0;exitDy=0;edgeStyle=orthogonalEdgeStyle;curved=1;entryX=1;entryY=1;entryDx=0;entryDy=0;fontStyle=1;fontSize=15;" edge="1" parent="1" source="2nWc24bB83PA8nXsG81y-19" target="2nWc24bB83PA8nXsG81y-4">
          <mxGeometry x="0.2377" y="-58" width="160" relative="1" as="geometry">
            <mxPoint x="240" y="-790" as="sourcePoint" />
            <mxPoint x="230" y="-870" as="targetPoint" />
            <mxPoint as="offset" />
          </mxGeometry>
        </mxCell>
        <mxCell id="2nWc24bB83PA8nXsG81y-42" value="&lt;span style=&quot;background-color: rgb(5, 5, 5); font-size: 15px;&quot;&gt;&lt;font style=&quot;font-size: 15px;&quot; color=&quot;#ffffff&quot;&gt;Uses&lt;/font&gt;&lt;/span&gt;" style="endArrow=open;endSize=12;dashed=1;html=1;rounded=0;strokeColor=#FFFFFF;strokeWidth=3;edgeStyle=orthogonalEdgeStyle;curved=1;entryX=0;entryY=1;entryDx=0;entryDy=0;fontStyle=1;fontSize=15;exitX=1;exitY=0;exitDx=0;exitDy=0;" edge="1" parent="1" source="2nWc24bB83PA8nXsG81y-16" target="2nWc24bB83PA8nXsG81y-4">
          <mxGeometry x="0.2603" y="68" width="160" relative="1" as="geometry">
            <mxPoint x="-150" y="-670" as="sourcePoint" />
            <mxPoint x="-150" y="-1030" as="targetPoint" />
            <mxPoint as="offset" />
          </mxGeometry>
        </mxCell>
        <mxCell id="2nWc24bB83PA8nXsG81y-43" style="edgeStyle=orthogonalEdgeStyle;rounded=0;orthogonalLoop=1;jettySize=auto;html=1;strokeWidth=4;strokeColor=#FFFFFF;curved=1;exitX=0.5;exitY=1;exitDx=0;exitDy=0;entryX=0.5;entryY=0;entryDx=0;entryDy=0;" edge="1" parent="1" source="2nWc24bB83PA8nXsG81y-18" target="2nWc24bB83PA8nXsG81y-28">
          <mxGeometry relative="1" as="geometry">
            <mxPoint x="570" y="-1056" as="sourcePoint" />
            <mxPoint x="570" y="-970" as="targetPoint" />
          </mxGeometry>
        </mxCell>
        <mxCell id="2nWc24bB83PA8nXsG81y-44" style="edgeStyle=orthogonalEdgeStyle;rounded=0;orthogonalLoop=1;jettySize=auto;html=1;strokeWidth=4;strokeColor=#FFFFFF;curved=1;exitX=0.5;exitY=1;exitDx=0;exitDy=0;entryX=0.5;entryY=0;entryDx=0;entryDy=0;" edge="1" parent="1">
          <mxGeometry relative="1" as="geometry">
            <mxPoint x="-310.83000000000004" y="-1080" as="sourcePoint" />
            <mxPoint x="-310.83000000000004" y="-970" as="targetPoint" />
          </mxGeometry>
        </mxCell>
      </root>
    </mxGraphModel>
  </diagram>
</mxfile>
